<svg xmlns="http://www.w3.org/2000/svg" viewBox="0 0 1024 1024" width="1024" height="1024">
  <defs>
    <linearGradient id="bg" x1="0" y1="0" x2="1024" y2="1024" gradientUnits="userSpaceOnUse">
      <stop offset="0%" stop-color="#dc2626"/>
      <stop offset="100%" stop-color="#b91c1c"/>
    </linearGradient>
    <clipPath id="squircle">
      <path d="M512,0 C 858,0 1024,166 1024,512 C 1024,858 858,1024 512,1024 C 166,1024 0,858 0,512 C 0,166 166,0 512,0 Z"/>
    </clipPath>
  </defs>
  <rect width="1024" height="1024" fill="url(#bg)" clip-path="url(#squircle)"/>
  <text x="512" y="700" text-anchor="middle" font-family="Helvetica, Arial, sans-serif" font-size="640" font-weight="900" fill="white">M</text>
  <!-- Mały pin marketplace multi-city -->
  <circle cx="820" cy="820" r="70" fill="white" opacity="0.95"/>
  <path d="M820 775 C 795 775 780 793 780 815 C 780 837 800 860 820 872 C 840 860 860 837 860 815 C 860 793 845 775 820 775 Z" fill="#dc2626"/>
  <circle cx="820" cy="812" r="12" fill="white"/>
</svg>
